<mxfile host="app.diagrams.net" modified="2023-12-25T12:45:45.455Z" agent="Mozilla/5.0 (Windows NT 10.0; Win64; x64) AppleWebKit/537.36 (KHTML, like Gecko) Chrome/120.0.0.0 Safari/537.36" version="22.1.11" etag="P5uBnZOQ8CCSsPjdXmoH" type="github">
  <diagram name="第 1 页" id="ZN9_x5btlsYsnZ73ouK6">
    <mxGraphModel>
      <root>
        <mxCell id="0" />
        <mxCell id="1" parent="0" />
      </root>
    </mxGraphModel>
  </diagram>
</mxfile>
